<svg xmlns="http://www.w3.org/2000/svg" xmlns:xlink="http://www.w3.org/1999/xlink" width="547" height="97" viewBox="0 0 547 97">
  <defs>
    <clipPath id="clip-logo-white">
      <rect width="547" height="97"/>
    </clipPath>
  </defs>
  <g id="logo-white" clip-path="url(#clip-logo-white)">
    <rect width="547" height="97" fill="rgba(16,0,59,0)"/>
    <circle id="Elipse_2" data-name="Elipse 2" cx="39" cy="39" r="39" transform="translate(152.415 68.391) rotate(166)" fill="#faf8ff"/>
    <path id="Trazado_3" data-name="Trazado 3" d="M23.5,0a23.5,23.5,0,0,1,0,47A38.7,38.7,0,0,1,6.578,42.3c-9.912-5.629-23.151-7.369-28.945-.906-6.574,8.245-10.166-28.085-10.166-33.29,0-5,5.425-25.137,17.853-11.391C-8.885,4.071,15.518,0,23.5,0Z" transform="translate(60.011 65.664) rotate(166)" fill="#faf8ff"/>
    <circle id="Elipse_1" data-name="Elipse 1" cx="39" cy="39" r="39" transform="translate(0 19)" fill="#c4badc" opacity="0.64"/>
    <path id="Trazado_2" data-name="Trazado 2" d="M23.5,0a23.5,23.5,0,0,1,0,47A38.7,38.7,0,0,1,6.578,42.3c-9.912-5.629-23.151-7.369-28.945-.906-3.405,4.271-17.223-.019-24.3-7.161-6.216-6.272-5.837-15.192-5.837-17.7,0-2.593,1.972-12,10.545-18.266,7.455-5.451,21.3-8.165,27.28-1.553C-8.885,4.071,15.518,0,23.5,0Z" transform="translate(89 44)" fill="#c4badc" opacity="0.64"/>
    <path id="Trazado_1" data-name="Trazado 1" d="M23.756-36.033c-4.216,0-7.259,1.263-9.757,4.277l-1.9-4.1H3.92V1.1h12.2V-17.694c0-4.714,1.809-6.69,6.129-6.69h4.737V-36.033Zm42.316,18.3c0-10.839-7.906-19.337-19.325-19.337-11.119,0-19.241,8.33-19.241,19.66,0,11.29,8.188,19.717,19.241,19.717a18.732,18.732,0,0,0,18.547-13.7H53.152a7.039,7.039,0,0,1-6.4,3.466c-3.853,0-6.433-2.192-7.232-6.431h26.3a24.408,24.408,0,0,0,.252-3.37ZM46.747-27.094c3.682,0,6.234,1.993,7.3,5.686H39.731C40.718-25.078,43.191-27.094,46.747-27.094ZM87.7,2.309c9.975,0,17.545-6.763,18.924-16.8H94.638A7.184,7.184,0,0,1,87.7-9.1c-4.25,0-7.339-3.478-7.339-8.293S83.415-25.6,87.7-25.6a7.21,7.21,0,0,1,6.908,4.971H106.5c-1.334-9.83-8.8-16.377-18.756-16.377-11.436,0-19.6,8.146-19.6,19.58S76.343,2.308,87.7,2.308Zm40.551,0c11.512,0,19.861-8.272,19.861-19.689,0-11.455-8.349-19.688-19.861-19.688-11.55,0-19.861,8.233-19.861,19.688C108.392-5.963,116.7,2.309,128.254,2.309Zm0-11.435c-4.449,0-7.64-3.368-7.64-8.253s3.191-8.253,7.64-8.253,7.64,3.4,7.64,8.254c0,4.886-3.191,8.253-7.64,8.253ZM180.7-35.857l-1.548,3.1a16.67,16.67,0,0,0-11.173-4.283c-10.156,0-17.7,8.049-17.7,18.585,0,10.692,7.546,18.574,17.7,18.574a16.644,16.644,0,0,0,9.244-2.774v1.1c0,4.394-3.286,7.1-7.375,7.1-2.964,0-5.987-1.331-6.832-3.8H151.238c1.63,8.758,8.667,14.045,18.72,14.045,11.7,0,18.988-7.194,18.988-18.807V-35.856ZM170-10.359c-4.419,0-7.562-3.387-7.562-8.094,0-4.668,3.181-8.055,7.562-8.055s7.534,3.387,7.534,8.055c0,4.708-3.153,8.094-7.534,8.094ZM216.6-36.95a14.443,14.443,0,0,0-11.151,4.9l-1.676-3.81h-8.56V1.1h12.2V-18.636c0-4.7,2.189-7.476,5.994-7.476,3.071,0,4.62,2.134,4.62,6.435V1.1h12.2V-21.436C230.229-30.851,224.826-36.95,216.6-36.95Zm19.575-3.532h12.015v-10.8H236.175ZM236.081,1.1h12.2V-35.857h-12.2Zm33-11.316L282.464-33.78v-2.076H253.219v11.238h12.367L252.016-.791V1.1H282.6V-10.219Zm17.93-30.263H299.03v-10.8H287.015ZM286.922,1.1h12.2V-35.857h-12.2Zm42.12-36.348H320.7v-2.509a2.706,2.706,0,0,1,2.89-3h5.389v-9.764h-8.518c-7.514,0-11.412,4.334-11.412,11.739v3.538H303.01l.028,10H308.9V1.1h12.2V-25.252h7.944Zm29.434-.606L351.47-15.5l-7.518-20.357H330.693l14.639,33.9c-1.653,4.6-3.061,5.867-7.729,5.867h-3.355V14.849h4.178c9.147,0,13.536-4.086,18.311-15.4l14.847-35.31Z" transform="translate(175 66)" fill="#f5f5f5"/>
  </g>
</svg>
