<svg xmlns="http://www.w3.org/2000/svg" xmlns:xlink="http://www.w3.org/1999/xlink" width="369" height="68" viewBox="0 0 369 68">
  <defs>
    <clipPath id="clip-logo-white">
      <rect width="369" height="68"/>
    </clipPath>
  </defs>
  <g id="logo-white" clip-path="url(#clip-logo-white)">
    <rect width="369" height="68" fill="rgba(16,0,59,0)"/>
    <path id="Trazado_1" data-name="Trazado 1" d="M23.832-35.974c-4.232,0-7.287,1.267-9.8,4.294L12.126-35.8H3.92V1.3H16.169V-17.565c0-4.732,1.816-6.716,6.153-6.716h4.755V-35.974ZM66.312-17.6c0-10.881-7.937-19.412-19.4-19.412C35.751-37.013,27.6-28.65,27.6-17.277c0,11.333,8.22,19.793,19.315,19.793A18.8,18.8,0,0,0,65.53-11.24H53.342a7.066,7.066,0,0,1-6.429,3.479c-3.868,0-6.458-2.2-7.26-6.456H66.058a24.5,24.5,0,0,0,.253-3.383ZM46.912-27c3.7,0,6.258,2,7.333,5.708H39.869C40.86-24.977,43.342-27,46.912-27ZM88.025,2.515c10.014,0,17.612-6.789,19-16.863H94.987a7.212,7.212,0,0,1-6.962,5.412c-4.267,0-7.368-3.491-7.368-8.325s3.063-8.246,7.368-8.246a7.238,7.238,0,0,1,6.935,4.99h11.931c-1.339-9.868-8.834-16.44-18.828-16.44-11.48,0-19.674,8.177-19.674,19.656S76.621,2.514,88.026,2.514Zm40.707,0c11.557,0,19.938-8.3,19.938-19.764,0-11.5-8.381-19.764-19.938-19.764-11.594,0-19.938,8.264-19.938,19.764C108.795-5.789,117.138,2.515,128.732,2.515Zm0-11.479c-4.466,0-7.669-3.381-7.669-8.285s3.2-8.285,7.669-8.285,7.669,3.41,7.669,8.286c0,4.9-3.2,8.285-7.669,8.285ZM181.377-35.8l-1.553,3.113a16.734,16.734,0,0,0-11.216-4.3c-10.2,0-17.77,8.08-17.77,18.657,0,10.733,7.575,18.646,17.77,18.646a16.708,16.708,0,0,0,9.279-2.785v1.107c0,4.411-3.3,7.132-7.4,7.132-2.975,0-6.01-1.336-6.859-3.815H151.8c1.636,8.791,8.7,14.1,18.792,14.1,11.746,0,19.061-7.222,19.061-18.88V-35.8ZM170.64-10.2c-4.436,0-7.591-3.4-7.591-8.126,0-4.686,3.193-8.086,7.592-8.086s7.563,3.4,7.563,8.086c0,4.726-3.165,8.126-7.563,8.126Zm46.778-26.693a14.5,14.5,0,0,0-11.194,4.922L204.541-35.8h-8.593V1.3H208.2V-18.51c0-4.722,2.2-7.5,6.017-7.5,3.083,0,4.637,2.142,4.637,6.46V1.3H231.1v-22.62C231.1-30.772,225.676-36.894,217.418-36.894Zm19.651-3.545H249.13V-51.284H237.069ZM236.975,1.3h12.249V-35.8H236.975ZM270.106-10.06l13.431-23.653V-35.8H254.179v11.281h12.415L252.971-.6V1.3h30.705V-10.06Zm18-30.38h12.061V-51.284H288.105ZM288.012,1.3H300.26V-35.8H288.012Zm42.282-36.488h-8.377v-2.519a2.716,2.716,0,0,1,2.9-3.017h5.41v-9.8h-8.551c-7.543,0-11.456,4.351-11.456,11.784v3.552h-6.058l.028,10.038h5.881V1.3h12.249V-25.152h7.974Zm29.548-.608-7.033,20.436L345.262-35.8h-13.31l14.7,34.032c-1.659,4.616-3.073,5.889-7.759,5.889H335.52V15.1h4.194C348.9,15.1,353.3,11,358.1-.351L373-35.8Z" transform="translate(-4 52)" fill="#f5f5f5"/>
  </g>
</svg>
